<svg width="17" height="22" viewBox="0 0 17 22" fill="none" xmlns="http://www.w3.org/2000/svg">
<path fill-rule="evenodd" clip-rule="evenodd" d="M15.18 6.5513C14.9338 4.22508 12.8188 3.50579 10.152 3.36247L10.1374 0.125861L8.07167 0.187785L8.08598 3.33909C7.54362 3.35519 6.98871 3.38197 6.4374 3.4089L6.42343 0.236721L4.35937 0.2982L4.37317 3.53391C3.92609 3.55595 3.48703 3.57696 3.05888 3.59L3.05856 3.57997L0.210175 3.66396L0.220188 5.76808C0.220188 5.76808 1.74512 5.69487 1.71989 5.72242C2.5564 5.69772 2.83129 6.15273 2.91172 6.55029L2.9285 10.2375C2.98623 10.236 3.06154 10.2361 3.14685 10.2447L2.92925 10.2513L2.95142 15.4168C2.91584 15.6691 2.7629 16.0741 2.17847 16.0925C2.20499 16.1141 0.67724 16.1369 0.67724 16.1369L0.277638 18.5024L2.96573 18.4221C3.2693 18.4134 3.56993 18.4075 3.86725 18.4017C4.05977 18.398 4.2509 18.3943 4.44056 18.3898L4.45631 21.6638L6.51927 21.6026L6.50518 18.3636C7.0711 18.358 7.61929 18.346 8.15444 18.3296L8.16806 21.5535L10.2332 21.4917L10.2192 18.2241C13.6903 17.9305 16.1172 17.0235 16.4039 13.905C16.6363 11.3932 15.3968 10.3124 13.4238 9.91915C14.6182 9.30077 15.3622 8.25365 15.1795 6.55145L15.18 6.5513ZM12.3221 13.6376C12.3327 15.8829 8.63441 15.9437 6.94378 15.9714C6.79238 15.9739 6.65708 15.9761 6.54199 15.9796L6.523 11.6425C6.6637 11.6383 6.83457 11.6294 7.02814 11.6192C8.76058 11.5286 12.311 11.3427 12.3226 13.6374L12.3221 13.6376ZM6.85277 9.65088C8.26427 9.63084 11.341 9.58715 11.3324 7.54716C11.3233 5.46027 8.36384 5.62352 6.91849 5.70325C6.756 5.71221 6.61265 5.72012 6.49478 5.72366L6.51237 9.65725C6.60966 9.65433 6.72432 9.6527 6.85277 9.65088Z" fill="#F7931A"/>
</svg>
