<svg width="960" height="1080" viewBox="0 0 960 1080" fill="none" xmlns="http://www.w3.org/2000/svg">
<mask id="mask0_394_358" style="mask-type:alpha" maskUnits="userSpaceOnUse" x="0" y="0" width="960" height="1080">
<rect width="960" height="1080" fill="#C4C4C4"/>
</mask>
<g mask="url(#mask0_394_358)">
<path d="M1960.83 -49H-41V1079.84H1960.83V-49Z" fill="#58A9A5"/>
<g opacity="0.32">
<g opacity="0.11">
<g opacity="0.11">
<path opacity="0.11" d="M74.6536 63.9894C74.6536 66.1789 72.9333 67.8992 70.7438 67.8992C68.5543 67.8992 66.834 66.1789 66.834 63.9894C66.834 61.7999 68.5543 60.0796 70.7438 60.0796C72.9333 60.236 74.6536 61.9563 74.6536 63.9894Z" fill="#A630B0"/>
<path opacity="0.11" d="M237.615 63.9894C237.615 66.1789 235.894 67.8992 233.705 67.8992C231.515 67.8992 229.795 66.1789 229.795 63.9894C229.795 61.7999 231.515 60.0796 233.705 60.0796C235.894 60.236 237.615 61.9563 237.615 63.9894Z" fill="#A630B0"/>
<path opacity="0.11" d="M400.575 63.9894C400.575 66.1789 398.855 67.8992 396.666 67.8992C394.476 67.8992 392.756 66.1789 392.756 63.9894C392.756 61.7999 394.476 60.0796 396.666 60.0796C398.855 60.236 400.575 61.9563 400.575 63.9894Z" fill="#A630B0"/>
<path opacity="0.11" d="M563.536 63.9894C563.536 66.1789 561.816 67.8992 559.627 67.8992C557.437 67.8992 555.717 66.1789 555.717 63.9894C555.717 61.7999 557.437 60.0796 559.627 60.0796C561.816 60.236 563.536 61.9563 563.536 63.9894Z" fill="#A630B0"/>
<path opacity="0.11" d="M726.497 63.9894C726.497 66.1789 724.777 67.8992 722.588 67.8992C720.398 67.8992 718.678 66.1789 718.678 63.9894C718.678 61.7999 720.398 60.0796 722.588 60.0796C724.777 60.236 726.497 61.9563 726.497 63.9894Z" fill="#A630B0"/>
<path opacity="0.11" d="M889.46 63.9894C889.46 66.1789 887.74 67.8992 885.55 67.8992C883.361 67.8992 881.641 66.1789 881.641 63.9894C881.641 61.7999 883.361 60.0796 885.55 60.0796C887.74 60.236 889.46 61.9563 889.46 63.9894Z" fill="#A630B0"/>
</g>
<g opacity="0.11">
<path opacity="0.11" d="M74.6536 220.069C74.6536 222.259 72.9333 223.979 70.7438 223.979C68.5543 223.979 66.834 222.259 66.834 220.069C66.834 217.88 68.5543 216.16 70.7438 216.16C72.9333 216.316 74.6536 218.036 74.6536 220.069Z" fill="#A630B0"/>
<path opacity="0.11" d="M237.615 220.069C237.615 222.259 235.894 223.979 233.705 223.979C231.515 223.979 229.795 222.259 229.795 220.069C229.795 217.88 231.515 216.16 233.705 216.16C235.894 216.316 237.615 218.036 237.615 220.069Z" fill="#A630B0"/>
<path opacity="0.11" d="M400.575 220.069C400.575 222.259 398.855 223.979 396.666 223.979C394.476 223.979 392.756 222.259 392.756 220.069C392.756 217.88 394.476 216.16 396.666 216.16C398.855 216.316 400.575 218.036 400.575 220.069Z" fill="#A630B0"/>
<path opacity="0.11" d="M563.536 220.069C563.536 222.259 561.816 223.979 559.627 223.979C557.437 223.979 555.717 222.259 555.717 220.069C555.717 217.88 557.437 216.16 559.627 216.16C561.816 216.316 563.536 218.036 563.536 220.069Z" fill="#A630B0"/>
<path opacity="0.11" d="M726.497 220.069C726.497 222.259 724.777 223.979 722.588 223.979C720.398 223.979 718.678 222.259 718.678 220.069C718.678 217.88 720.398 216.16 722.588 216.16C724.777 216.316 726.497 218.036 726.497 220.069Z" fill="#A630B0"/>
<path opacity="0.11" d="M889.46 220.069C889.46 222.259 887.74 223.979 885.55 223.979C883.361 223.979 881.641 222.259 881.641 220.069C881.641 217.88 883.361 216.16 885.55 216.16C887.74 216.316 889.46 218.036 889.46 220.069Z" fill="#A630B0"/>
</g>
<g opacity="0.11">
<path opacity="0.11" d="M74.6536 376.149C74.6536 378.339 72.9333 380.059 70.7438 380.059C68.5543 380.059 66.834 378.339 66.834 376.149C66.834 373.96 68.5543 372.239 70.7438 372.239C72.9333 372.239 74.6536 373.96 74.6536 376.149Z" fill="#A630B0"/>
<path opacity="0.11" d="M237.615 376.149C237.615 378.339 235.894 380.059 233.705 380.059C231.515 380.059 229.795 378.339 229.795 376.149C229.795 373.96 231.515 372.239 233.705 372.239C235.894 372.239 237.615 373.96 237.615 376.149Z" fill="#A630B0"/>
<path opacity="0.11" d="M400.575 376.149C400.575 378.339 398.855 380.059 396.666 380.059C394.476 380.059 392.756 378.339 392.756 376.149C392.756 373.96 394.476 372.239 396.666 372.239C398.855 372.239 400.575 373.96 400.575 376.149Z" fill="#A630B0"/>
<path opacity="0.11" d="M563.536 376.149C563.536 378.339 561.816 380.059 559.627 380.059C557.437 380.059 555.717 378.339 555.717 376.149C555.717 373.96 557.437 372.239 559.627 372.239C561.816 372.239 563.536 373.96 563.536 376.149Z" fill="#A630B0"/>
<path opacity="0.11" d="M726.497 376.149C726.497 378.339 724.777 380.059 722.588 380.059C720.398 380.059 718.678 378.339 718.678 376.149C718.678 373.96 720.398 372.239 722.588 372.239C724.777 372.239 726.497 373.96 726.497 376.149Z" fill="#A630B0"/>
<path opacity="0.11" d="M889.46 376.149C889.46 378.339 887.74 380.059 885.55 380.059C883.361 380.059 881.641 378.339 881.641 376.149C881.641 373.96 883.361 372.239 885.55 372.239C887.74 372.239 889.46 373.96 889.46 376.149Z" fill="#A630B0"/>
</g>
<g opacity="0.11">
<path opacity="0.11" d="M74.6536 532.228C74.6536 534.418 72.9333 536.138 70.7438 536.138C68.5543 536.138 66.834 534.418 66.834 532.228C66.834 530.039 68.5543 528.318 70.7438 528.318C72.9333 528.318 74.6536 530.039 74.6536 532.228Z" fill="#A630B0"/>
<path opacity="0.11" d="M237.615 532.228C237.615 534.418 235.894 536.138 233.705 536.138C231.515 536.138 229.795 534.418 229.795 532.228C229.795 530.039 231.515 528.318 233.705 528.318C235.894 528.318 237.615 530.039 237.615 532.228Z" fill="#A630B0"/>
<path opacity="0.11" d="M400.575 532.228C400.575 534.418 398.855 536.138 396.666 536.138C394.476 536.138 392.756 534.418 392.756 532.228C392.756 530.039 394.476 528.318 396.666 528.318C398.855 528.318 400.575 530.039 400.575 532.228Z" fill="#A630B0"/>
<path opacity="0.11" d="M559.627 536.138C561.786 536.138 563.536 534.388 563.536 532.228C563.536 530.069 561.786 528.318 559.627 528.318C557.467 528.318 555.717 530.069 555.717 532.228C555.717 534.388 557.467 536.138 559.627 536.138Z" fill="#A630B0"/>
<path opacity="0.11" d="M726.497 532.228C726.497 534.418 724.777 536.138 722.588 536.138C720.398 536.138 718.678 534.418 718.678 532.228C718.678 530.039 720.398 528.318 722.588 528.318C724.777 528.318 726.497 530.039 726.497 532.228Z" fill="#A630B0"/>
<path opacity="0.11" d="M889.46 532.228C889.46 534.418 887.74 536.138 885.55 536.138C883.361 536.138 881.641 534.418 881.641 532.228C881.641 530.039 883.361 528.318 885.55 528.318C887.74 528.318 889.46 530.039 889.46 532.228Z" fill="#A630B0"/>
</g>
<g opacity="0.11">
<path opacity="0.11" d="M74.6536 688.309C74.6536 690.499 72.9333 692.219 70.7438 692.219C68.5543 692.219 66.834 690.499 66.834 688.309C66.834 686.12 68.5543 684.399 70.7438 684.399C72.9333 684.399 74.6536 686.12 74.6536 688.309Z" fill="#A630B0"/>
<path opacity="0.11" d="M237.615 688.309C237.615 690.499 235.894 692.219 233.705 692.219C231.515 692.219 229.795 690.499 229.795 688.309C229.795 686.12 231.515 684.399 233.705 684.399C235.894 684.399 237.615 686.12 237.615 688.309Z" fill="#A630B0"/>
<path opacity="0.11" d="M400.575 688.309C400.575 690.499 398.855 692.219 396.666 692.219C394.476 692.219 392.756 690.499 392.756 688.309C392.756 686.12 394.476 684.399 396.666 684.399C398.855 684.399 400.575 686.12 400.575 688.309Z" fill="#A630B0"/>
<path opacity="0.11" d="M563.536 688.309C563.536 690.499 561.816 692.219 559.627 692.219C557.437 692.219 555.717 690.499 555.717 688.309C555.717 686.12 557.437 684.399 559.627 684.399C561.816 684.399 563.536 686.12 563.536 688.309Z" fill="#A630B0"/>
<path opacity="0.11" d="M726.497 688.309C726.497 690.499 724.777 692.219 722.588 692.219C720.398 692.219 718.678 690.499 718.678 688.309C718.678 686.12 720.398 684.399 722.588 684.399C724.777 684.399 726.497 686.12 726.497 688.309Z" fill="#A630B0"/>
<path opacity="0.11" d="M889.458 688.309C889.458 690.499 887.738 692.219 885.548 692.219C883.359 692.219 881.639 690.499 881.639 688.309C881.639 686.12 883.359 684.399 885.548 684.399C887.738 684.399 889.458 686.12 889.458 688.309Z" fill="#A630B0"/>
</g>
<g opacity="0.11">
<path opacity="0.11" d="M74.6536 844.388C74.6536 846.578 72.9333 848.298 70.7438 848.298C68.5543 848.298 66.834 846.578 66.834 844.388C66.834 842.199 68.5543 840.479 70.7438 840.479C72.9333 840.479 74.6536 842.199 74.6536 844.388Z" fill="#A630B0"/>
<path opacity="0.11" d="M237.615 844.388C237.615 846.578 235.894 848.298 233.705 848.298C231.515 848.298 229.795 846.578 229.795 844.388C229.795 842.199 231.515 840.479 233.705 840.479C235.894 840.479 237.615 842.199 237.615 844.388Z" fill="#A630B0"/>
<path opacity="0.11" d="M400.575 844.388C400.575 846.578 398.855 848.298 396.666 848.298C394.476 848.298 392.756 846.578 392.756 844.388C392.756 842.199 394.476 840.479 396.666 840.479C398.855 840.479 400.575 842.199 400.575 844.388Z" fill="#A630B0"/>
<path opacity="0.11" d="M563.536 844.388C563.536 846.578 561.816 848.298 559.627 848.298C557.437 848.298 555.717 846.578 555.717 844.388C555.717 842.199 557.437 840.479 559.627 840.479C561.816 840.479 563.536 842.199 563.536 844.388Z" fill="#A630B0"/>
<path opacity="0.11" d="M726.497 844.388C726.497 846.578 724.777 848.298 722.588 848.298C720.398 848.298 718.678 846.578 718.678 844.388C718.678 842.199 720.398 840.479 722.588 840.479C724.777 840.479 726.497 842.199 726.497 844.388Z" fill="#A630B0"/>
<path opacity="0.11" d="M889.458 844.388C889.458 846.578 887.738 848.298 885.548 848.298C883.359 848.298 881.639 846.578 881.639 844.388C881.639 842.199 883.359 840.479 885.548 840.479C887.738 840.479 889.458 842.199 889.458 844.388Z" fill="#A630B0"/>
</g>
<g opacity="0.11">
<path opacity="0.11" d="M74.6536 1000.47C74.6536 1002.66 72.9333 1004.38 70.7438 1004.38C68.5543 1004.38 66.834 1002.66 66.834 1000.47C66.834 998.279 68.5543 996.559 70.7438 996.559C72.9333 996.559 74.6536 998.279 74.6536 1000.47Z" fill="#A630B0"/>
<path opacity="0.11" d="M237.615 1000.47C237.615 1002.66 235.894 1004.38 233.705 1004.38C231.515 1004.38 229.795 1002.66 229.795 1000.47C229.795 998.279 231.515 996.559 233.705 996.559C235.894 996.559 237.615 998.279 237.615 1000.47Z" fill="#A630B0"/>
<path opacity="0.11" d="M400.575 1000.47C400.575 1002.66 398.855 1004.38 396.666 1004.38C394.476 1004.38 392.756 1002.66 392.756 1000.47C392.756 998.279 394.476 996.559 396.666 996.559C398.855 996.559 400.575 998.279 400.575 1000.47Z" fill="#A630B0"/>
<path opacity="0.11" d="M563.536 1000.47C563.536 1002.66 561.816 1004.38 559.627 1004.38C557.437 1004.38 555.717 1002.66 555.717 1000.47C555.717 998.279 557.437 996.559 559.627 996.559C561.816 996.559 563.536 998.279 563.536 1000.47Z" fill="#A630B0"/>
<path opacity="0.11" d="M726.497 1000.47C726.497 1002.66 724.777 1004.38 722.588 1004.38C720.398 1004.38 718.678 1002.66 718.678 1000.47C718.678 998.279 720.398 996.559 722.588 996.559C724.777 996.559 726.497 998.279 726.497 1000.47Z" fill="#A630B0"/>
<path opacity="0.11" d="M889.46 1000.47C889.46 1002.66 887.74 1004.38 885.55 1004.38C883.361 1004.38 881.641 1002.66 881.641 1000.47C881.641 998.279 883.361 996.559 885.55 996.559C887.74 996.559 889.46 998.279 889.46 1000.47Z" fill="#A630B0"/>
</g>
</g>
</g>
<g filter="url(#filter0_i_394_358)">
<path d="M1155.67 673.671C1155.67 673.671 1116.57 755.152 1012.1 702.447C907.633 649.587 899.188 595.944 698.849 647.71C498.51 699.476 425.787 696.348 382.936 636.919C340.084 577.49 259.229 495.071 88.4484 503.829C-82.4888 512.587 -170.381 309.433 -293.619 276.59C-416.856 243.591 -506 345.247 -506 345.247V1391.2H1796.88C1796.88 1391.2 1737.92 1231.37 1605.93 1182.73C1473.77 1134.09 1492.7 1101.25 1480.66 1019.77C1468.46 938.288 1214.79 883.237 1232.46 763.597C1249.82 643.644 1155.67 673.671 1155.67 673.671Z" fill="#BFE8DF"/>
</g>
<g filter="url(#filter1_i_394_358)">
<path d="M-546.608 349.186C-532.377 341.21 -282.461 288.506 -203.796 436.922C-125.13 585.339 -42.0859 587.059 84.123 596.13C210.332 605.201 172.172 607.078 312.613 686.681C453.053 766.285 535.472 724.841 637.909 696.378C740.19 667.914 903.621 736.101 1034.21 676.829C1164.8 617.556 1170.11 714.832 1170.11 714.832C1170.11 714.832 1133.83 799.753 1239.4 859.182C1345.12 918.612 1293.19 987.112 1322.6 1095.65C1352 1204.34 1638.04 1365.27 1638.04 1365.27L-599 1262.99L-546.608 349.186Z" fill="#D6ECE9"/>
</g>
<g filter="url(#filter2_i_394_358)">
<path d="M-441.997 455C-441.997 455 -400.865 622.809 -227.739 641.576C-54.6121 660.344 -49.2948 654.87 16.8593 731.346C82.857 807.822 118.671 850.673 236.435 822.992C354.198 795.31 457.73 729.938 554.224 782.955C650.562 835.972 864.195 925.898 1084.4 717.27C1304.6 508.643 1232.34 822.992 1232.34 822.992C1232.34 822.992 1079.7 939.661 1302.25 1044.6C1380.76 1083.85 1367.94 1200.68 1393.9 1276.53C1419.7 1352.38 1631.3 1498.61 1631.3 1498.61C1631.3 1498.61 9.82168 1616.84 -0.813022 1618.4C-11.4477 1619.97 -617 1326.58 -617 1326.58L-441.997 455Z" fill="#58A9A5"/>
</g>
<path d="M669 403C669.07 451.316 651.221 497.943 618.905 533.862V533.889C614.336 538.969 609.511 543.812 604.448 548.399C599.267 553.092 593.835 557.5 588.177 561.603C584.229 564.484 580.174 567.205 576.013 569.765C571.078 572.833 566.001 575.669 560.782 578.274C556.914 580.222 552.966 582.035 548.939 583.716C524.896 593.82 499.076 599.016 472.997 599C458.268 599.016 443.584 597.37 429.224 594.092C422.583 592.582 416.03 590.712 409.592 588.49C407.111 587.663 404.63 586.757 402.176 585.797C387.296 580.045 373.185 572.474 360.164 563.257C332.642 543.88 310.574 517.742 296.086 487.361C281.598 456.98 275.178 423.38 277.445 389.798C279.712 356.216 290.589 323.783 309.028 295.625C327.467 267.466 352.847 244.531 382.723 229.028C412.6 213.525 445.965 205.977 479.605 207.111C513.245 208.246 546.026 218.024 574.79 235.504C603.554 252.984 627.331 277.577 643.832 306.913C660.333 336.25 669 369.341 669 403V403Z" fill="#F2F2F2"/>
<path d="M408.763 863.677C370.584 812.741 348.518 755.782 347.795 690.844C346.565 687.345 346.769 683.498 348.362 680.15C349.956 676.801 352.809 674.223 356.295 672.981L486.428 626.797C489.917 625.563 493.751 625.768 497.09 627.367C500.429 628.965 502.999 631.826 504.237 635.323L565.205 808.156C566.435 811.656 566.231 815.502 564.638 818.85C563.044 822.199 560.191 824.777 556.705 826.019L426.572 872.203C423.083 873.437 419.249 873.232 415.91 871.633C412.571 870.035 410.001 867.174 408.763 863.677V863.677Z" fill="#E6E6E6"/>
<path d="M400.102 808.14C377.047 784.872 367.178 743.373 360.747 697.12C359.591 693.845 359.783 690.246 361.281 687.112C362.78 683.979 365.462 681.566 368.74 680.405L481.032 640.746C484.313 639.591 487.919 639.783 491.058 641.279C494.198 642.774 496.615 645.452 497.779 648.724L552.253 802.394C553.409 805.669 553.217 809.268 551.719 812.402C550.22 815.535 547.538 817.948 544.259 819.109L474.697 843.677C460.083 848.82 444.022 847.966 430.038 841.304C416.053 834.642 405.288 822.715 400.102 808.14V808.14Z" fill="white"/>
<path d="M499.286 731.727L411.475 762.678C410.783 762.922 410.049 763.029 409.316 762.993C408.582 762.957 407.862 762.778 407.199 762.468C406.535 762.157 405.939 761.72 405.446 761.182C404.953 760.645 404.573 760.016 404.326 759.333C404.079 758.65 403.97 757.925 404.007 757.201C404.044 756.476 404.224 755.766 404.539 755.11C404.854 754.455 405.296 753.867 405.84 753.38C406.385 752.893 407.022 752.517 407.714 752.273L495.525 721.322C496.922 720.829 498.461 720.905 499.801 721.532C501.142 722.16 502.176 723.287 502.674 724.667C503.173 726.047 503.096 727.566 502.461 728.89C501.826 730.214 500.684 731.234 499.286 731.727H499.286Z" fill="#6AC6C1"/>
<path d="M421.222 726.812L401.598 733.674C400.895 733.921 400.15 734.029 399.404 733.993C398.658 733.957 397.927 733.778 397.252 733.465C396.577 733.152 395.971 732.712 395.47 732.17C394.969 731.627 394.582 730.994 394.331 730.305C394.08 729.616 393.97 728.885 394.007 728.154C394.045 727.424 394.229 726.707 394.549 726.046C394.869 725.385 395.319 724.793 395.873 724.302C396.427 723.812 397.074 723.433 397.778 723.188L417.402 716.326C418.105 716.079 418.85 715.971 419.596 716.007C420.342 716.043 421.073 716.222 421.748 716.535C422.423 716.848 423.029 717.288 423.53 717.83C424.031 718.373 424.418 719.007 424.669 719.696C424.92 720.385 425.03 721.115 424.993 721.846C424.955 722.577 424.771 723.293 424.451 723.954C424.131 724.615 423.681 725.207 423.127 725.698C422.573 726.188 421.926 726.567 421.222 726.812Z" fill="#6AC6C1"/>
<path d="M515.329 777.726L428.395 808.68C427.012 809.171 425.49 809.094 424.164 808.467C422.838 807.839 421.816 806.712 421.322 805.333C420.829 803.954 420.904 802.435 421.532 801.112C422.16 799.788 423.289 798.768 424.671 798.274L511.605 767.32C512.988 766.829 514.51 766.906 515.836 767.533C517.162 768.161 518.184 769.288 518.678 770.667C519.171 772.046 519.096 773.565 518.468 774.888C517.84 776.212 516.711 777.232 515.329 777.726Z" fill="#6AC6C1"/>
<path d="M507.319 754.728L420.399 785.679C419.016 786.171 417.493 786.095 416.166 785.468C414.839 784.84 413.816 783.713 413.322 782.333C412.829 780.953 412.905 779.434 413.533 778.11C414.162 776.786 415.293 775.766 416.676 775.274L503.596 744.323C504.281 744.079 505.007 743.971 505.734 744.007C506.461 744.042 507.174 744.22 507.831 744.531C508.489 744.841 509.079 745.278 509.567 745.816C510.056 746.354 510.433 746.983 510.678 747.667C510.922 748.351 511.029 749.076 510.993 749.801C510.957 750.526 510.777 751.236 510.465 751.892C510.153 752.548 509.715 753.136 509.175 753.623C508.635 754.109 508.004 754.485 507.319 754.728Z" fill="#6AC6C1"/>
<path d="M428.413 314.114C431.252 337.071 447.124 356 470.206 356C481.291 356 491.921 351.587 499.759 343.732C507.597 335.877 512 325.223 512 314.114C512 290.981 493.189 274.367 470.206 272.229C445.82 269.959 424.767 284.64 428.413 314.114Z" fill="#2F2E41"/>
<path d="M506 596.28C480.449 600.477 454.282 599.812 429 594.322C441 587.992 477.398 591.882 506 596.28Z" fill="#2F2E41"/>
<path d="M344.055 669.6L364.16 621L380 629.803L370.434 679.241C371.392 682.373 371.458 685.711 370.624 688.878C369.789 692.046 368.088 694.917 365.712 697.171C363.336 699.424 360.378 700.97 357.171 701.634C353.965 702.298 350.637 702.055 347.561 700.931C344.486 699.806 341.784 697.847 339.761 695.271C337.738 692.696 336.473 689.606 336.109 686.351C335.745 683.096 336.296 679.804 337.699 676.845C339.103 673.886 341.304 671.377 344.055 669.6Z" fill="#FFB6B6"/>
<g filter="url(#filter3_d_394_358)">
<path d="M551.958 538.697V538.724C551.236 555.634 550.248 571.717 549.42 584.092C525.335 594.195 499.471 599.391 473.346 599.375C458.592 599.391 443.882 597.745 429.498 594.468C422.846 592.958 416.28 591.088 409.832 588.867C410.729 588.288 411.7 587.831 412.717 587.506C422.337 584.252 412.824 581.292 412.904 578.198C413.198 566.889 416.325 553.313 420.359 540.298L402.403 586.173L393.051 610.017C393.051 610.017 393.372 630.608 387.44 624.313C381.481 618.019 381.908 638.396 381.908 638.396C380.057 639.713 378.462 641.358 377.206 643.25C376.677 644.101 376.477 645.116 376.645 646.104V646.13C376.913 646.906 377.442 647.565 378.141 647.997C382.176 650.718 376.377 657.919 373.812 660.773C373.117 661.546 372.663 662 372.663 662L348 660.239V659.759C348.107 656.852 348.775 641.543 352.596 637.889C356.791 633.861 354.734 627.487 354.734 627.487C354.734 627.487 365.689 617.805 358.341 609.937C355.402 606.763 356.711 587.96 360.318 563.635C368.201 509.972 387.092 429.424 395.269 430.571C396.953 422.401 400.867 414.855 406.577 408.764C412.287 402.674 419.572 398.277 427.627 396.058L454.268 388.75L459.024 370H496.54L503.059 382.322L530.394 394.645L530.742 394.805L531.597 395.178L531.918 396.191C531.918 396.191 531.891 396.218 531.918 396.218L547.122 443.88C553.962 451.722 553.695 497.543 551.958 538.697Z" fill="#6AC6C1"/>
</g>
<path d="M615.168 634.695L590 588.839L606.634 582L638.983 620.185C642.002 621.389 644.627 623.413 646.562 626.032C648.498 628.65 649.667 631.758 649.939 635.007C650.211 638.256 649.574 641.517 648.101 644.423C646.628 647.328 644.376 649.764 641.599 651.456C638.823 653.148 635.631 654.028 632.383 653.999C629.135 653.97 625.959 653.032 623.213 651.291C620.467 649.549 618.259 647.073 616.838 644.142C615.417 641.21 614.839 637.939 615.168 634.695Z" fill="#FFB6B6"/>
<path d="M530 394C534.519 402.095 575.847 422.914 568.685 443.816C568.685 443.816 607.511 564.917 612.56 564.126C617.609 563.336 622.536 575.845 622.536 575.845C622.536 575.845 621.465 584.009 624.615 580.616C627.764 577.224 627.01 586.117 627.01 586.117C627.01 586.117 625.501 593.966 629.499 591.832C633.498 589.698 628.241 604.72 628.241 604.72L604.212 616L599.646 609.224C599.646 609.224 589.888 607.372 594.479 605.905C599.071 604.437 590.162 599.498 590.162 599.498C590.162 599.498 580.842 593.183 582.141 582.725C583.44 572.267 557.956 551.708 557.956 551.708C540.437 517.224 530.853 481.82 530.886 445.3L530 394Z" fill="#6AC6C1"/>
<path d="M475 359C495.435 359 512 342.211 512 321.5C512 300.789 495.435 284 475 284C454.565 284 438 300.789 438 321.5C438 342.211 454.565 359 475 359Z" fill="#FFB6B6"/>
<path d="M436.568 325.64C437.735 333.723 444.562 345 442.963 345C441.364 345 429.997 311.679 441.364 309.506C449.61 307.93 451.453 309.313 459.159 305.941L458.072 306.973C463.172 310.716 470.27 308.409 476.09 305.973C481.925 303.553 489.008 301.246 494.124 304.973C497.338 307.312 498.697 311.378 500.695 314.83C502.694 318.299 506.387 321.574 510.192 320.509C511.675 319.931 512.938 318.893 513.799 317.546C514.661 316.198 515.077 314.609 514.988 313.007C514.972 309.813 510.85 306.774 512.238 303.908C516.352 295.414 512.653 289.625 503.685 285.628C500.423 285.128 497.162 284.617 493.9 284.096C495.609 281.707 497.681 279.605 500.04 277.868C499.043 275.29 497.32 273.063 495.083 271.463C492.32 270.167 489.24 269.718 486.226 270.172C479.479 270.527 472.738 270.882 466.001 271.237C460.985 271.147 456.005 272.125 451.389 274.109C445.825 276.997 442.18 282.627 439.526 288.355C433.578 301.23 434.522 311.587 436.568 325.64Z" fill="#2F2E41"/>
</g>
<defs>
<filter id="filter0_i_394_358" x="-506" y="270" width="2302.88" height="1125.2" filterUnits="userSpaceOnUse" color-interpolation-filters="sRGB">
<feFlood flood-opacity="0" result="BackgroundImageFix"/>
<feBlend mode="normal" in="SourceGraphic" in2="BackgroundImageFix" result="shape"/>
<feColorMatrix in="SourceAlpha" type="matrix" values="0 0 0 0 0 0 0 0 0 0 0 0 0 0 0 0 0 0 127 0" result="hardAlpha"/>
<feOffset dy="4"/>
<feGaussianBlur stdDeviation="2"/>
<feComposite in2="hardAlpha" operator="arithmetic" k2="-1" k3="1"/>
<feColorMatrix type="matrix" values="0 0 0 0 0 0 0 0 0 0 0 0 0 0 0 0 0 0 0.25 0"/>
<feBlend mode="normal" in2="shape" result="effect1_innerShadow_394_358"/>
</filter>
<filter id="filter1_i_394_358" x="-599" y="333.621" width="2237.04" height="1035.65" filterUnits="userSpaceOnUse" color-interpolation-filters="sRGB">
<feFlood flood-opacity="0" result="BackgroundImageFix"/>
<feBlend mode="normal" in="SourceGraphic" in2="BackgroundImageFix" result="shape"/>
<feColorMatrix in="SourceAlpha" type="matrix" values="0 0 0 0 0 0 0 0 0 0 0 0 0 0 0 0 0 0 127 0" result="hardAlpha"/>
<feOffset dy="4"/>
<feGaussianBlur stdDeviation="2"/>
<feComposite in2="hardAlpha" operator="arithmetic" k2="-1" k3="1"/>
<feColorMatrix type="matrix" values="0 0 0 0 0 0 0 0 0 0 0 0 0 0 0 0 0 0 0.25 0"/>
<feBlend mode="normal" in2="shape" result="effect1_innerShadow_394_358"/>
</filter>
<filter id="filter2_i_394_358" x="-617" y="455" width="2248.3" height="1167.41" filterUnits="userSpaceOnUse" color-interpolation-filters="sRGB">
<feFlood flood-opacity="0" result="BackgroundImageFix"/>
<feBlend mode="normal" in="SourceGraphic" in2="BackgroundImageFix" result="shape"/>
<feColorMatrix in="SourceAlpha" type="matrix" values="0 0 0 0 0 0 0 0 0 0 0 0 0 0 0 0 0 0 127 0" result="hardAlpha"/>
<feOffset dy="4"/>
<feGaussianBlur stdDeviation="2"/>
<feComposite in2="hardAlpha" operator="arithmetic" k2="-1" k3="1"/>
<feColorMatrix type="matrix" values="0 0 0 0 0 0 0 0 0 0 0 0 0 0 0 0 0 0 0.25 0"/>
<feBlend mode="normal" in2="shape" result="effect1_innerShadow_394_358"/>
</filter>
<filter id="filter3_d_394_358" x="344" y="370" width="213" height="300" filterUnits="userSpaceOnUse" color-interpolation-filters="sRGB">
<feFlood flood-opacity="0" result="BackgroundImageFix"/>
<feColorMatrix in="SourceAlpha" type="matrix" values="0 0 0 0 0 0 0 0 0 0 0 0 0 0 0 0 0 0 127 0" result="hardAlpha"/>
<feOffset dy="4"/>
<feGaussianBlur stdDeviation="2"/>
<feComposite in2="hardAlpha" operator="out"/>
<feColorMatrix type="matrix" values="0 0 0 0 0 0 0 0 0 0 0 0 0 0 0 0 0 0 0.25 0"/>
<feBlend mode="normal" in2="BackgroundImageFix" result="effect1_dropShadow_394_358"/>
<feBlend mode="normal" in="SourceGraphic" in2="effect1_dropShadow_394_358" result="shape"/>
</filter>
</defs>
</svg>
