<svg width="108" height="104" viewBox="0 0 108 104" fill="none" xmlns="http://www.w3.org/2000/svg">
<path d="M107.416 44.3826C108.984 54.5629 107.378 64.9621 102.802 74.2631C98.2269 83.564 90.8876 91.3484 81.7139 96.6302C72.5402 101.912 61.9449 104.454 51.2698 103.933C40.5947 103.413 30.3202 99.8542 21.7474 93.7074C13.1746 87.5605 6.68921 79.1023 3.11268 69.404C-0.463854 59.7056 -0.970647 49.2035 1.65644 39.2276C4.28353 29.2517 9.92631 20.2509 17.8702 13.3652C25.814 6.47937 35.7016 2.01839 46.2806 0.547187C53.2842 -0.4399 60.4212 -0.0890411 67.284 1.57973C74.1467 3.24849 80.6009 6.20249 86.278 10.273C91.955 14.3436 96.7437 19.4509 100.371 25.3035C103.998 31.156 106.392 37.6391 107.416 44.3826Z" fill="#58A9A5"/>
<path d="M93.572 46.31C94.7268 53.9449 93.5324 61.7422 90.14 68.7149C86.7475 75.6877 81.3096 81.5223 74.5145 85.4803C67.7194 89.4383 59.8727 91.3417 51.9676 90.9496C44.0624 90.5575 36.4543 87.8874 30.1063 83.2775C23.7583 78.6675 18.9558 72.3249 16.3067 65.0525C13.6576 57.7801 13.281 49.9049 15.2246 42.4237C17.1682 34.9425 21.3447 28.1917 27.2252 23.0259C33.1058 17.8601 40.4261 14.5114 48.2595 13.4039C58.7418 11.9218 69.399 14.5538 77.8936 20.7227C86.3882 26.8915 92.0266 36.0934 93.572 46.31Z" fill="#92CCC5"/>
<path d="M93.9121 45.5527C93.6749 45.5527 93.2505 43.818 92.1769 40.776C90.6737 36.5052 88.5429 32.5011 85.8601 28.9053C84.0206 26.4571 81.9275 24.2258 79.6182 22.2516C76.9474 20.0084 74.0106 18.129 70.8795 16.6593C69.1939 15.8594 67.4539 15.1888 65.6737 14.6528C61.8952 13.5147 57.9728 12.9736 54.0388 13.0476C49.9191 13.1302 45.8374 13.8815 41.942 15.2742C40.0541 15.9552 38.218 16.7816 36.4491 17.7467C34.7408 18.6752 33.1047 19.7399 31.5554 20.9312C30.0582 22.0638 28.6475 23.3146 27.3359 24.6723C22.7275 29.3486 19.2979 35.1276 17.3488 41.5009C16.0207 45.8334 15.3469 50.3529 15.3514 54.899C15.3514 58.1482 15.5512 59.9605 15.3514 59.9994C15.1517 60.0382 14.5774 58.2906 14.2029 54.9767C13.7233 50.2476 14.0957 45.4673 15.3015 40.8795C16.1149 37.7171 17.2795 34.6632 18.772 31.7791C20.5451 28.4643 22.7459 25.4157 25.3135 22.7176C26.6974 21.2346 28.1918 19.8668 29.7827 18.627C31.4325 17.3137 33.1818 16.1406 35.0134 15.1189C36.9089 14.0514 38.8835 13.1423 40.9183 12.4004C43.0173 11.6558 45.1661 11.0717 47.3475 10.6528C49.5384 10.2653 51.7542 10.049 53.9764 10.0056C56.1316 9.96861 58.2861 10.1158 60.418 10.4457C62.4746 10.7475 64.5037 11.2238 66.4852 11.8697C68.3891 12.4261 70.2469 13.1404 72.0405 14.0056C78.2621 17.0689 83.6188 21.7408 87.5953 27.572C90.2345 31.452 92.1563 35.8062 93.263 40.4135C94.0619 43.6627 94.0869 45.5268 93.9121 45.5527Z" fill="#E0E0E0"/>
<path d="M35.3202 68.4028V39.2428H45.1122C46.8642 39.2428 48.3042 39.5788 49.4322 40.2508C50.5602 40.8988 51.4002 41.8588 51.9522 43.1308C52.5042 44.3788 52.7802 45.9028 52.7802 47.7028C52.7802 49.9588 52.4082 51.6868 51.6642 52.8868C50.9202 54.0628 49.9122 54.8788 48.6402 55.3348C47.3682 55.7908 45.9402 56.0188 44.3562 56.0188H41.7642V68.4028H35.3202ZM41.7642 51.5188H43.9242C44.7162 51.5188 45.3162 51.3748 45.7242 51.0868C46.1322 50.7988 46.3962 50.3668 46.5162 49.7908C46.6602 49.2148 46.7322 48.4828 46.7322 47.5948C46.7322 46.8508 46.6722 46.2028 46.5522 45.6508C46.4562 45.0748 46.2042 44.6188 45.7962 44.2828C45.3882 43.9468 44.7522 43.7788 43.8882 43.7788H41.7642V51.5188ZM64.2386 68.8348C62.0306 68.8348 60.2786 68.4388 58.9826 67.6468C57.7106 66.8308 56.8106 65.7028 56.2826 64.2628C55.7546 62.7988 55.4906 61.0828 55.4906 59.1148V48.6028C55.4906 46.5868 55.7546 44.8588 56.2826 43.4188C56.8106 41.9548 57.7106 40.8268 58.9826 40.0348C60.2786 39.2428 62.0306 38.8468 64.2386 38.8468C66.3986 38.8468 68.0786 39.2068 69.2786 39.9268C70.5026 40.6228 71.3666 41.6068 71.8706 42.8788C72.3746 44.1508 72.6266 45.6148 72.6266 47.2708V49.7908H66.3266V46.8748C66.3266 46.2988 66.2906 45.7468 66.2186 45.2188C66.1706 44.6908 66.0026 44.2588 65.7146 43.9228C65.4266 43.5628 64.9346 43.3828 64.2386 43.3828C63.5666 43.3828 63.0626 43.5628 62.7266 43.9228C62.4146 44.2828 62.2106 44.7388 62.1146 45.2908C62.0426 45.8188 62.0066 46.3828 62.0066 46.9828V60.6988C62.0066 61.3468 62.0546 61.9468 62.1506 62.4988C62.2706 63.0268 62.4866 63.4588 62.7986 63.7948C63.1346 64.1068 63.6146 64.2628 64.2386 64.2628C64.9106 64.2628 65.3906 64.0948 65.6786 63.7588C65.9666 63.3988 66.1466 62.9428 66.2186 62.3908C66.2906 61.8388 66.3266 61.2748 66.3266 60.6988V57.6388H72.6266V60.1588C72.6266 61.8148 72.3746 63.3028 71.8706 64.6228C71.3906 65.9188 70.5386 66.9508 69.3146 67.7188C68.1146 68.4628 66.4226 68.8348 64.2386 68.8348Z" fill="white"/>
</svg>
