
<svg width="70" height="70" viewBox="0 0 70 70" fill="none" xmlns="http://www.w3.org/2000/svg">
<path d="M60.6592 57.8066L49.7612 46.9087C53.6098 42.3255 55.5405 36.4336 55.1507 30.4616C54.7609 24.4896 52.0806 18.8987 47.6689 14.8546C43.2572 10.8106 37.4546 8.62563 31.4711 8.75547C25.4877 8.88531 19.7853 11.3199 15.5532 15.5515C11.3211 19.7831 8.88589 25.4851 8.75552 31.4684C8.62514 37.4517 10.8096 43.2543 14.8534 47.6662C18.8972 52.0782 24.4881 54.7588 30.4602 55.1492C36.4323 55.5395 42.3246 53.6094 46.9083 49.7613L57.8065 60.6592C58.1848 61.0375 58.6979 61.25 59.2328 61.25C59.7678 61.25 60.2809 61.0375 60.6592 60.6592C61.0375 60.2809 61.25 59.7679 61.25 59.2329C61.25 58.6979 61.0375 58.1849 60.6592 57.8066ZM12.8408 32.0025C12.8408 28.2126 13.9647 24.5078 16.0703 21.3567C18.1759 18.2055 21.1687 15.7495 24.6702 14.2991C28.1717 12.8488 32.0246 12.4693 35.7418 13.2087C39.459 13.9481 42.8734 15.7731 45.5533 18.4529C48.2333 21.1328 50.0583 24.5471 50.7977 28.2642C51.5371 31.9812 51.1576 35.8341 49.7073 39.3355C48.2569 42.8368 45.8008 45.8295 42.6495 47.9351C39.4982 50.0406 35.7934 51.1645 32.0034 51.1645C26.9229 51.1587 22.0522 49.138 18.4597 45.5457C14.8673 41.9534 12.8466 37.0828 12.8408 32.0025Z" fill="#C4C4C4"/>
</svg>
