<svg width="111" height="111" viewBox="0 0 111 111" fill="none" xmlns="http://www.w3.org/2000/svg">
<path d="M110.4 47.3699C112.011 58.2354 110.361 69.3345 105.658 79.2615C100.955 89.1885 93.4122 97.4969 83.9837 103.134C74.5552 108.772 63.6656 111.484 52.694 110.929C41.7224 110.374 31.1624 106.575 22.3515 100.015C13.5405 93.454 6.87503 84.4265 3.19914 74.0754C-0.476739 63.7243 -0.997609 52.5153 1.70245 41.8679C4.40252 31.2206 10.202 21.614 18.3666 14.2647C26.5311 6.91548 36.6933 2.15424 47.5662 0.584017C54.7643 -0.469508 62.0995 -0.0950342 69.153 1.68605C76.2064 3.46714 82.8399 6.61996 88.6746 10.9645C94.5093 15.309 99.4311 20.7601 103.159 27.0066C106.886 33.2531 109.347 40.1725 110.4 47.3699Z" fill="#58A9A5"/>
<path d="M96.171 49.4271C97.3579 57.5758 96.1303 65.8979 92.6436 73.34C89.157 80.782 83.568 87.0094 76.5841 91.2338C69.6003 95.4582 61.5356 97.4897 53.4109 97.0712C45.2862 96.6527 37.4667 93.8029 30.9424 88.8827C24.418 83.9624 19.4821 77.1929 16.7595 69.431C14.0368 61.6691 13.6497 53.2638 15.6473 45.2791C17.6449 37.2944 21.9373 30.0892 27.9812 24.5757C34.0251 19.0622 41.5488 15.4882 49.5998 14.3061C60.3733 12.7242 71.3266 15.5334 80.0571 22.1175C88.7877 28.7015 94.5827 38.5228 96.171 49.4271Z" fill="#92CCC5"/>
<path d="M96.5206 48.619C96.2768 48.619 95.8406 46.7676 94.7371 43.5208C93.1922 38.9626 91.0023 34.6889 88.2449 30.8512C86.3543 28.2382 84.203 25.8567 81.8296 23.7495C79.0846 21.3553 76.0663 19.3495 72.8481 17.7809C71.1157 16.9271 69.3274 16.2114 67.4978 15.6393C63.6143 14.4246 59.583 13.8471 55.5396 13.9261C51.3055 14.0142 47.1104 14.8161 43.1068 16.3025C41.1665 17.0293 39.2794 17.9114 37.4613 18.9415C35.7056 19.9324 34.024 21.0688 32.4318 22.3403C30.8929 23.5491 29.443 24.8841 28.095 26.3332C23.3586 31.3243 19.8337 37.4922 17.8305 44.2945C16.4655 48.9186 15.773 53.7423 15.7776 58.5944C15.7776 62.0623 15.9829 63.9966 15.7776 64.038C15.5723 64.0795 14.9822 62.2143 14.5972 58.6773C14.1042 53.63 14.4871 48.5279 15.7263 43.6313C16.5623 40.256 17.7593 36.9965 19.2932 33.9184C21.1156 30.3805 23.3775 27.1267 26.0165 24.2469C27.4388 22.6641 28.9747 21.2043 30.6098 19.881C32.3055 18.4794 34.1033 17.2272 35.9858 16.1367C37.9339 14.9974 39.9633 14.0272 42.0547 13.2353C44.212 12.4406 46.4205 11.8172 48.6625 11.3701C50.9142 10.9565 53.1916 10.7256 55.4755 10.6793C57.6906 10.6398 59.905 10.7969 62.0961 11.149C64.2097 11.4712 66.2953 11.9795 68.3317 12.6688C70.2886 13.2628 72.198 14.0251 74.0414 14.9485C80.4358 18.218 85.9413 23.2044 90.0283 29.4281C92.7408 33.5692 94.7159 38.2165 95.8534 43.1339C96.6745 46.6018 96.7002 48.5914 96.5206 48.619Z" fill="#E0E0E0"/>
<path d="M36.242 70.1128V40.9528H46.034C47.786 40.9528 49.226 41.2888 50.354 41.9608C51.482 42.6088 52.322 43.5688 52.874 44.8408C53.426 46.0888 53.702 47.6128 53.702 49.4128C53.702 51.6688 53.33 53.3968 52.586 54.5968C51.842 55.7728 50.834 56.5888 49.562 57.0448C48.29 57.5008 46.862 57.7288 45.278 57.7288H42.686V70.1128H36.242ZM42.686 53.2288H44.846C45.638 53.2288 46.238 53.0848 46.646 52.7968C47.054 52.5088 47.318 52.0768 47.438 51.5008C47.582 50.9248 47.654 50.1928 47.654 49.3048C47.654 48.5608 47.594 47.9128 47.474 47.3608C47.378 46.7848 47.126 46.3288 46.718 45.9928C46.31 45.6568 45.674 45.4888 44.81 45.4888H42.686V53.2288ZM65.1604 70.5448C62.9524 70.5448 61.2004 70.1488 59.9044 69.3568C58.6324 68.5408 57.7324 67.4128 57.2044 65.9728C56.6764 64.5088 56.4124 62.7928 56.4124 60.8248V50.3128C56.4124 48.2968 56.6764 46.5688 57.2044 45.1288C57.7324 43.6648 58.6324 42.5368 59.9044 41.7448C61.2004 40.9528 62.9524 40.5568 65.1604 40.5568C67.3204 40.5568 69.0004 40.9168 70.2004 41.6368C71.4244 42.3328 72.2884 43.3168 72.7924 44.5888C73.2964 45.8608 73.5484 47.3248 73.5484 48.9808V51.5008H67.2484V48.5848C67.2484 48.0088 67.2124 47.4568 67.1404 46.9288C67.0924 46.4008 66.9244 45.9688 66.6364 45.6328C66.3484 45.2728 65.8564 45.0928 65.1604 45.0928C64.4884 45.0928 63.9844 45.2728 63.6484 45.6328C63.3364 45.9928 63.1324 46.4488 63.0364 47.0008C62.9644 47.5288 62.9284 48.0928 62.9284 48.6928V62.4088C62.9284 63.0568 62.9764 63.6568 63.0724 64.2088C63.1924 64.7368 63.4084 65.1688 63.7204 65.5048C64.0564 65.8168 64.5364 65.9728 65.1604 65.9728C65.8324 65.9728 66.3124 65.8048 66.6004 65.4688C66.8884 65.1088 67.0684 64.6528 67.1404 64.1008C67.2124 63.5488 67.2484 62.9848 67.2484 62.4088V59.3488H73.5484V61.8688C73.5484 63.5248 73.2964 65.0128 72.7924 66.3328C72.3124 67.6288 71.4604 68.6608 70.2364 69.4288C69.0364 70.1728 67.3444 70.5448 65.1604 70.5448Z" fill="white"/>
</svg>
